{"title":"Sam Smith - Writing's On The Wall (from Spectre) 2015","uid":12526406,"size":98650289,"categoryP":"video","categoryS":"music_videos","magnet":"?xt=urn:btih:6654e6d7a68a09e36f05cb52f20b087d581b3870&amp;dn=Sam+Smith+-+Writing%27s+On+The+Wall+%28from+Spectre%29+2015&amp;tr=udp%3A%2F%2Ftracker.leechers-paradise.org%3A6969&amp;tr=udp%3A%2F%2Fzer0day.ch%3A1337&amp;tr=udp%3A%2F%2Fopen.demonii.com%3A1337&amp;tr=udp%3A%2F%2Ftracker.coppersurfer.tk%3A6969&amp;tr=udp%3A%2F%2Fexodus.desync.com%3A6969","seeders":11,"leechers":2,"uploader":"MeRaDil","files":1,"time":1444067349,"description":"SAM SMITH - WRITING'S ON THE WALL\r\n\r\n \nhttp://gifyu.com/images/spectre-1.png\r\n \nhttp://gifyu.com/images/spectre-2.png\r\n \nhttp://gifyu.com/images/spectre-3.png\r\n\r\n\r\nMEDIA INFO\r\nGeneral\r\nSam Smith - Writing's On The Wall\r\nFormat                                   : MPEG-4\r\nFormat profile                           : Base Media\r\nCodec ID                                 : isom\r\nFile size                                : 94.1 MiB\r\nDuration                                 : 4mn 44s\r\nOverall bit rate                         : 2 774 Kbps\r\nMusicVid name                            : Writing's On The Wall\r\nPerformer                                : Sam Smith\r\nGenre                                    : Soundtrack/Pop\r\nContentType                              : Music Video\r\nRecorded date                            : 2015\r\nComment                                  : from the James Bond movie:Spectre\r\nMake                                     : MeRaDil\r\nRelease date                             : UK - october 4 - 2015\r\n\r\nVideo\r\nID                                       : 1\r\nFormat                                   : AVC\r\nFormat/Info                              : Advanced Video Codec\r\nFormat profile                           :   \r\nFormat settings, CABAC                   : Yes\r\nFormat settings, ReFrames                : 2 frames\r\nCodec ID                                 : avc1\r\nCodec ID/Info                            : Advanced Video Coding\r\nDuration                                 : 4mn 44s\r\nBit rate                                 : 2 512 Kbps\r\nWidth                                    : 1 920 pixels\r\nHeight                                   : 1 080 pixels\r\nDisplay aspect ratio                     : 16:9\r\nFrame rate mode                          : Constant\r\nFrame rate                               : 25.000 fps\r\nColor space                              : YUV\r\nChroma subsampling                       : 4:2:0\r\nBit depth                                : 8 bits\r\nScan type                                : Progressive\r\nBits/(Pixel*Frame)                       : 0.048\r\nStream size                              : 85.2 MiB (91%)\r\n\r\nAudio\r\nID                                       : 2\r\nFormat                                   : AAC\r\nFormat/Info                              : Advanced Audio Codec\r\nFormat profile                           : LC\r\nCodec ID                                 : 40\r\nDuration                                 : 4mn 44s\r\nBit rate mode                            : Constant\r\nBit rate                                 : 256 Kbps\r\nChannel(s)                               : 2 channels\r\nChannel positions                        : Front: L R\r\nSampling rate                            : 44.1 KHz\r\nCompression mode                         : Lossy\r\nStream size                              : 8.68 MiB (9%)\r\n\r\nSam Smith * James Bond Spectre * Soundtrack/Pop * Promo","torrent":{"xt":"urn:btih:6654e6d7a68a09e36f05cb52f20b087d581b3870","amp;dn":"Sam+Smith+-+Writing%27s+On+The+Wall+%28from+Spectre%29+2015","amp;tr":["udp%3A%2F%2Ftracker.leechers-paradise.org%3A6969","udp%3A%2F%2Fzer0day.ch%3A1337","udp%3A%2F%2Fopen.demonii.com%3A1337","udp%3A%2F%2Ftracker.coppersurfer.tk%3A6969","udp%3A%2F%2Fexodus.desync.com%3A6969"],"infoHash":"6654e6d7a68a09e36f05cb52f20b087d581b3870","infoHashBuffer":{"type":"Buffer","data":[102,84,230,215,166,138,9,227,111,5,203,82,242,11,8,125,88,27,56,112]},"announce":[],"urlList":[]}}